<mxfile host="Electron" modified="2023-10-16T12:03:24.256Z" agent="Mozilla/5.0 (X11; Linux x86_64) AppleWebKit/537.36 (KHTML, like Gecko) draw.io/22.0.2 Chrome/114.0.5735.289 Electron/25.8.4 Safari/537.36" etag="NfgNHe05LlXhs5prt_mQ" version="22.0.2" type="device">
  <diagram name="Page-1" id="e7e014a7-5840-1c2e-5031-d8a46d1fe8dd">
    <mxGraphModel dx="1364" dy="843" grid="1" gridSize="10" guides="1" tooltips="1" connect="1" arrows="1" fold="1" page="1" pageScale="1" pageWidth="827" pageHeight="1169" background="none" math="0" shadow="0">
      <root>
        <mxCell id="0" />
        <mxCell id="1" parent="0" />
        <mxCell id="2" value="acteur" style="swimlane;whiteSpace=wrap" parent="1" vertex="1">
          <mxGeometry x="120" y="15" width="280" height="1105" as="geometry" />
        </mxCell>
        <mxCell id="1qgxbF44lcU51VAB7l26-56" value="consulte les produit" style="rounded=1;whiteSpace=wrap;html=1;arcSize=40;fontColor=#000000;fillColor=#ffffc0;strokeColor=#ff0000;" parent="2" vertex="1">
          <mxGeometry x="45.5" y="132" width="120" height="40" as="geometry" />
        </mxCell>
        <mxCell id="1qgxbF44lcU51VAB7l26-57" value="" style="edgeStyle=orthogonalEdgeStyle;html=1;verticalAlign=bottom;endArrow=open;endSize=8;strokeColor=#ff0000;rounded=0;" parent="2" source="1qgxbF44lcU51VAB7l26-56" edge="1">
          <mxGeometry relative="1" as="geometry">
            <mxPoint x="105.5" y="232" as="targetPoint" />
          </mxGeometry>
        </mxCell>
        <mxCell id="1qgxbF44lcU51VAB7l26-58" value="metter des produit dans le panier" style="rounded=1;whiteSpace=wrap;html=1;arcSize=40;fontColor=#000000;fillColor=#ffffc0;strokeColor=#ff0000;" parent="2" vertex="1">
          <mxGeometry x="45.5" y="232" width="120" height="40" as="geometry" />
        </mxCell>
        <mxCell id="1qgxbF44lcU51VAB7l26-60" value="il valide son panier" style="rounded=1;whiteSpace=wrap;html=1;arcSize=40;fontColor=#000000;fillColor=#ffffc0;strokeColor=#ff0000;" parent="2" vertex="1">
          <mxGeometry x="45.5" y="505" width="120" height="40" as="geometry" />
        </mxCell>
        <mxCell id="1qgxbF44lcU51VAB7l26-64" value="il choisie un mode de livraison" style="rounded=1;whiteSpace=wrap;html=1;arcSize=40;fontColor=#000000;fillColor=#ffffc0;strokeColor=#ff0000;" parent="2" vertex="1">
          <mxGeometry x="90" y="685" width="120" height="40" as="geometry" />
        </mxCell>
        <mxCell id="1qgxbF44lcU51VAB7l26-68" value="il entre les imformation sur le paiement" style="rounded=1;whiteSpace=wrap;html=1;arcSize=40;fontColor=#000000;fillColor=#ffffc0;strokeColor=#ff0000;" parent="2" vertex="1">
          <mxGeometry x="100" y="855" width="120" height="40" as="geometry" />
        </mxCell>
        <mxCell id="qxi8-adTJp_FjoQXOIrM-8" value="il se connecte" style="rounded=1;whiteSpace=wrap;html=1;arcSize=40;fontColor=#000000;fillColor=#ffffc0;strokeColor=#ff0000;" vertex="1" parent="2">
          <mxGeometry x="45.5" y="405" width="120" height="40" as="geometry" />
        </mxCell>
        <mxCell id="qxi8-adTJp_FjoQXOIrM-9" value="" style="edgeStyle=orthogonalEdgeStyle;html=1;verticalAlign=bottom;endArrow=open;endSize=8;strokeColor=#ff0000;rounded=0;" edge="1" source="qxi8-adTJp_FjoQXOIrM-8" parent="2">
          <mxGeometry relative="1" as="geometry">
            <mxPoint x="105.5" y="505" as="targetPoint" />
          </mxGeometry>
        </mxCell>
        <mxCell id="3" value="systeme" style="swimlane;whiteSpace=wrap;startSize=23;" parent="1" vertex="1">
          <mxGeometry x="400" y="15" width="280" height="1105" as="geometry" />
        </mxCell>
        <mxCell id="1qgxbF44lcU51VAB7l26-47" value="" style="ellipse;html=1;shape=startState;fillColor=#000000;strokeColor=#ff0000;" parent="3" vertex="1">
          <mxGeometry x="125.5" y="42" width="30" height="30" as="geometry" />
        </mxCell>
        <mxCell id="1qgxbF44lcU51VAB7l26-48" value="" style="edgeStyle=orthogonalEdgeStyle;html=1;verticalAlign=bottom;endArrow=open;endSize=8;strokeColor=#ff0000;rounded=0;" parent="3" source="1qgxbF44lcU51VAB7l26-47" edge="1">
          <mxGeometry relative="1" as="geometry">
            <mxPoint x="140.5" y="132" as="targetPoint" />
          </mxGeometry>
        </mxCell>
        <mxCell id="1qgxbF44lcU51VAB7l26-50" value="" style="ellipse;html=1;shape=endState;fillColor=#000000;strokeColor=#ff0000;" parent="3" vertex="1">
          <mxGeometry x="235.5" y="1065" width="30" height="30" as="geometry" />
        </mxCell>
        <mxCell id="1qgxbF44lcU51VAB7l26-62" value="demande de choisir le mode de livraison" style="rounded=1;whiteSpace=wrap;html=1;arcSize=40;fontColor=#000000;fillColor=#ffffc0;strokeColor=#ff0000;" parent="3" vertex="1">
          <mxGeometry x="130" y="530" width="120" height="40" as="geometry" />
        </mxCell>
        <mxCell id="1qgxbF44lcU51VAB7l26-66" value="affiche un formulaire de paiement" style="rounded=1;whiteSpace=wrap;html=1;arcSize=40;fontColor=#000000;fillColor=#ffffc0;strokeColor=#ff0000;" parent="3" vertex="1">
          <mxGeometry x="115.5" y="725" width="120" height="40" as="geometry" />
        </mxCell>
        <mxCell id="1qgxbF44lcU51VAB7l26-70" value="confirme la commande" style="rounded=1;whiteSpace=wrap;html=1;arcSize=40;fontColor=#000000;fillColor=#ffffc0;strokeColor=#ff0000;" parent="3" vertex="1">
          <mxGeometry x="110" y="935" width="120" height="40" as="geometry" />
        </mxCell>
        <mxCell id="1qgxbF44lcU51VAB7l26-71" value="" style="edgeStyle=orthogonalEdgeStyle;html=1;verticalAlign=bottom;endArrow=open;endSize=8;strokeColor=#ff0000;rounded=0;entryX=0.5;entryY=0;entryDx=0;entryDy=0;" parent="3" source="1qgxbF44lcU51VAB7l26-70" edge="1" target="1qgxbF44lcU51VAB7l26-50">
          <mxGeometry relative="1" as="geometry">
            <mxPoint x="245.5" y="512" as="targetPoint" />
          </mxGeometry>
        </mxCell>
        <mxCell id="qxi8-adTJp_FjoQXOIrM-4" value="demande se connecter" style="rounded=1;whiteSpace=wrap;html=1;arcSize=40;fontColor=#000000;fillColor=#ffffc0;strokeColor=#ff0000;" vertex="1" parent="3">
          <mxGeometry x="70" y="255" width="120" height="40" as="geometry" />
        </mxCell>
        <mxCell id="1qgxbF44lcU51VAB7l26-54" value="affiche la page" style="rounded=1;whiteSpace=wrap;html=1;arcSize=40;fontColor=#000000;fillColor=#ffffc0;strokeColor=#ff0000;" parent="1" vertex="1">
          <mxGeometry x="475.5" y="147" width="120" height="40" as="geometry" />
        </mxCell>
        <mxCell id="1qgxbF44lcU51VAB7l26-55" value="" style="edgeStyle=orthogonalEdgeStyle;html=1;verticalAlign=bottom;endArrow=open;endSize=8;strokeColor=#ff0000;rounded=0;exitX=0;exitY=0.5;exitDx=0;exitDy=0;" parent="1" source="1qgxbF44lcU51VAB7l26-54" edge="1">
          <mxGeometry relative="1" as="geometry">
            <mxPoint x="285.5" y="167" as="targetPoint" />
          </mxGeometry>
        </mxCell>
        <mxCell id="1qgxbF44lcU51VAB7l26-61" value="" style="edgeStyle=orthogonalEdgeStyle;html=1;verticalAlign=bottom;endArrow=open;endSize=8;strokeColor=#ff0000;rounded=0;entryX=0;entryY=0.5;entryDx=0;entryDy=0;" parent="1" source="1qgxbF44lcU51VAB7l26-60" target="1qgxbF44lcU51VAB7l26-62" edge="1">
          <mxGeometry relative="1" as="geometry">
            <mxPoint x="465.5" y="237" as="targetPoint" />
          </mxGeometry>
        </mxCell>
        <mxCell id="1qgxbF44lcU51VAB7l26-63" value="" style="edgeStyle=orthogonalEdgeStyle;html=1;verticalAlign=bottom;endArrow=open;endSize=8;strokeColor=#ff0000;rounded=0;entryX=0.5;entryY=0;entryDx=0;entryDy=0;exitX=0.5;exitY=1;exitDx=0;exitDy=0;" parent="1" source="1qgxbF44lcU51VAB7l26-62" target="1qgxbF44lcU51VAB7l26-64" edge="1">
          <mxGeometry relative="1" as="geometry">
            <mxPoint x="415.5" y="527" as="targetPoint" />
            <mxPoint x="620.5" y="347" as="sourcePoint" />
            <Array as="points">
              <mxPoint x="590" y="650" />
              <mxPoint x="270" y="650" />
            </Array>
          </mxGeometry>
        </mxCell>
        <mxCell id="1qgxbF44lcU51VAB7l26-67" value="" style="edgeStyle=orthogonalEdgeStyle;html=1;verticalAlign=bottom;endArrow=open;endSize=8;strokeColor=#ff0000;rounded=0;entryX=0.5;entryY=0;entryDx=0;entryDy=0;" parent="1" source="1qgxbF44lcU51VAB7l26-66" target="1qgxbF44lcU51VAB7l26-68" edge="1">
          <mxGeometry relative="1" as="geometry">
            <mxPoint x="605.5" y="437" as="targetPoint" />
          </mxGeometry>
        </mxCell>
        <mxCell id="1qgxbF44lcU51VAB7l26-69" value="" style="edgeStyle=orthogonalEdgeStyle;html=1;verticalAlign=bottom;endArrow=open;endSize=8;strokeColor=#ff0000;rounded=0;entryX=0.25;entryY=0;entryDx=0;entryDy=0;" parent="1" source="1qgxbF44lcU51VAB7l26-68" target="1qgxbF44lcU51VAB7l26-70" edge="1">
          <mxGeometry relative="1" as="geometry">
            <mxPoint x="215.5" y="585" as="targetPoint" />
          </mxGeometry>
        </mxCell>
        <mxCell id="1qgxbF44lcU51VAB7l26-59" value="" style="edgeStyle=orthogonalEdgeStyle;html=1;verticalAlign=bottom;endArrow=open;endSize=8;strokeColor=#ff0000;rounded=0;entryX=0;entryY=0.5;entryDx=0;entryDy=0;" parent="1" source="1qgxbF44lcU51VAB7l26-58" edge="1" target="qxi8-adTJp_FjoQXOIrM-4">
          <mxGeometry relative="1" as="geometry">
            <mxPoint x="225.5" y="347" as="targetPoint" />
          </mxGeometry>
        </mxCell>
        <mxCell id="qxi8-adTJp_FjoQXOIrM-5" value="" style="edgeStyle=orthogonalEdgeStyle;html=1;verticalAlign=bottom;endArrow=open;endSize=8;strokeColor=#ff0000;rounded=0;entryX=0.5;entryY=0;entryDx=0;entryDy=0;exitX=0.5;exitY=1;exitDx=0;exitDy=0;" edge="1" source="qxi8-adTJp_FjoQXOIrM-4" parent="1" target="qxi8-adTJp_FjoQXOIrM-8">
          <mxGeometry relative="1" as="geometry">
            <mxPoint x="530" y="370" as="targetPoint" />
          </mxGeometry>
        </mxCell>
        <mxCell id="qxi8-adTJp_FjoQXOIrM-10" style="edgeStyle=orthogonalEdgeStyle;rounded=0;orthogonalLoop=1;jettySize=auto;html=1;entryX=0.5;entryY=0;entryDx=0;entryDy=0;strokeColor=#FF0000;" edge="1" parent="1" source="1qgxbF44lcU51VAB7l26-64" target="1qgxbF44lcU51VAB7l26-66">
          <mxGeometry relative="1" as="geometry" />
        </mxCell>
      </root>
    </mxGraphModel>
  </diagram>
</mxfile>
